<svg width="1920" height="156" viewBox="0 0 1920 156" fill="none" xmlns="http://www.w3.org/2000/svg">
<rect width="1920" height="156" fill="#D9D9D9"/>
<path d="M460.92 51.04V108H450.92V59.68H424.84V108H414.84V51.04H460.92Z" fill="#555555"/>
<path d="M517.56 49.68C525.613 49.68 532.147 52.4533 537.16 58C542.227 63.4933 544.76 70.6667 544.76 79.52C544.76 88.3733 542.227 95.5733 537.16 101.12C532.093 106.613 525.507 109.36 517.4 109.36C509.24 109.36 502.627 106.613 497.56 101.12C492.547 95.6267 490.04 88.4267 490.04 79.52C490.04 70.88 492.493 63.76 497.4 58.16C502.36 52.5067 509.08 49.68 517.56 49.68ZM517.4 58.08C512.173 58.08 507.987 60.0267 504.84 63.92C501.693 67.76 500.12 72.9067 500.12 79.36C500.12 85.9733 501.667 91.2267 504.76 95.12C507.907 99.0133 512.173 100.96 517.56 100.96C522.733 100.96 526.867 99.0133 529.96 95.12C533.107 91.1733 534.68 85.9467 534.68 79.44C534.68 72.9333 533.107 67.76 529.96 63.92C526.867 60.0267 522.68 58.08 517.4 58.08Z" fill="#555555"/>
<path d="M608.96 83.04C602.827 84.1067 597.84 84.64 594 84.64C590.693 84.64 587.76 84.24 585.2 83.44C582.693 82.5867 580.747 81.5733 579.36 80.4C578.027 79.1733 576.933 77.7333 576.08 76.08C575.227 74.4267 574.667 72.9333 574.4 71.6C574.133 70.2133 574 68.7733 574 67.28V51.04H584V64.24C584 65.52 584.027 66.5333 584.08 67.28C584.133 68.0267 584.373 69.0133 584.8 70.24C585.227 71.4667 585.813 72.4267 586.56 73.12C587.307 73.8133 588.453 74.4267 590 74.96C591.547 75.4933 593.413 75.76 595.6 75.76C599.973 75.76 604.427 75.3067 608.96 74.4V51.04H618.96V108H608.96V83.04Z" fill="#555555"/>
<path d="M675.28 92L655.6 51.04H666.64L680.4 81.6L694.48 51.04H705.28L683.12 96.4C680.827 101.093 678.373 104.427 675.76 106.4C673.147 108.373 670.187 109.36 666.88 109.36C664.533 109.36 662.293 108.88 660.16 107.92V99.52C661.707 100.48 663.84 100.96 666.56 100.96C668.267 100.96 669.707 100.293 670.88 98.96C672.053 97.6267 673.493 95.36 675.2 92.16L675.28 92Z" fill="#555555"/>
<path d="M783.8 86.32C783.267 93.3067 780.76 98.9067 776.28 103.12C771.853 107.28 766.093 109.36 759 109.36C750.947 109.36 744.493 106.64 739.64 101.2C734.787 95.76 732.36 88.5333 732.36 79.52C732.36 74.08 733.4 69.1467 735.48 64.72C737.56 60.24 740.68 56.64 744.84 53.92C749 51.1467 753.88 49.76 759.48 49.76C765.507 49.76 770.76 51.44 775.24 54.8C779.72 58.1067 782.413 62.9067 783.32 69.2H773.4C772.707 65.7867 771.107 63.12 768.6 61.2C766.093 59.2267 763 58.24 759.32 58.24C755.533 58.24 752.307 59.3067 749.64 61.44C747.027 63.5733 745.16 66.2133 744.04 69.36C742.973 72.4533 742.44 75.84 742.44 79.52C742.44 82.2933 742.76 84.9067 743.4 87.36C744.04 89.8133 745 92.08 746.28 94.16C747.56 96.1867 749.293 97.8133 751.48 99.04C753.72 100.267 756.307 100.88 759.24 100.88C767.72 100.88 772.573 96.0267 773.8 86.32H783.8Z" fill="#555555"/>
<path d="M860.88 51.04V59.68H842.72V108H832.72V59.68H814.56V51.04H860.88Z" fill="#555555"/>
<path d="M894.92 51.04H920.92C926.893 51.04 931.453 52.3467 934.6 54.96C937.8 57.52 939.4 60.9867 939.4 65.36C939.4 68.08 938.653 70.5333 937.16 72.72C935.667 74.8533 933.693 76.4 931.24 77.36C934.547 78.16 937.16 79.76 939.08 82.16C941 84.56 941.96 87.5733 941.96 91.2C941.96 96.2133 940.28 100.267 936.92 103.36C933.613 106.453 929.293 108 923.96 108H894.92V51.04ZM904.68 59.12V74.8H918.28C922.12 74.8 924.947 74.2133 926.76 73.04C928.573 71.8133 929.48 69.7867 929.48 66.96C929.48 63.76 928.52 61.6533 926.6 60.64C924.733 59.6267 922.067 59.12 918.6 59.12H904.68ZM904.68 82V99.84H919.64C923.48 99.84 926.493 99.2 928.68 97.92C930.867 96.64 931.96 94.32 931.96 90.96C931.96 89.0933 931.613 87.5467 930.92 86.32C930.28 85.04 929.32 84.1067 928.04 83.52C926.813 82.9333 925.533 82.5333 924.2 82.32C922.867 82.1067 921.293 82 919.48 82H904.68Z" fill="#555555"/>
<path d="M993.28 92L973.6 51.04H984.64L998.4 81.6L1012.48 51.04H1023.28L1001.12 96.4C998.827 101.093 996.373 104.427 993.76 106.4C991.147 108.373 988.187 109.36 984.88 109.36C982.533 109.36 980.293 108.88 978.16 107.92V99.52C979.707 100.48 981.84 100.96 984.56 100.96C986.267 100.96 987.707 100.293 988.88 98.96C990.053 97.6267 991.493 95.36 993.2 92.16L993.28 92Z" fill="#555555"/>
<path d="M1091 36.64C1090.57 40.48 1089.29 43.3333 1087.16 45.2C1085.03 47.0133 1081.93 47.92 1077.88 47.92C1073.83 47.92 1070.73 47.0133 1068.6 45.2C1066.47 43.3333 1065.19 40.48 1064.76 36.64H1069.4C1070.41 40.6933 1073.24 42.72 1077.88 42.72C1082.52 42.72 1085.35 40.6933 1086.36 36.64H1091ZM1054.84 108V51.04H1064.84V94.72L1089.32 51.04H1100.92V108H1090.92V64.32L1066.44 108H1054.84Z" fill="#555555"/>
<path d="M1217.16 51.04H1241.88C1248.01 51.04 1252.84 52.5067 1256.36 55.44C1259.93 58.32 1261.72 62.64 1261.72 68.4C1261.72 73.84 1260.07 78.16 1256.76 81.36C1253.45 84.5067 1248.95 86.08 1243.24 86.08H1227.16V108H1217.16V51.04ZM1227.16 59.36V78H1241.08C1248.33 78 1251.96 74.88 1251.96 68.64C1251.96 62.4533 1248.04 59.36 1240.2 59.36H1227.16Z" fill="#555555"/>
<path d="M1294.84 108V51.04H1304.84V94.72L1329.32 51.04H1340.92V108H1330.92V64.32L1306.44 108H1294.84Z" fill="#555555"/>
<path d="M1420.88 51.04V59.68H1402.72V108H1392.72V59.68H1374.56V51.04H1420.88Z" fill="#555555"/>
<path d="M1507.2 51.04V108H1497.68V64.08L1481.84 108H1473.68L1457.44 64.08V108H1448V51.04H1462L1477.92 95.6L1493.28 51.04H1507.2Z" fill="#555555"/>
</svg>
