<svg width="358" height="725" viewBox="0 0 358 725" fill="none" xmlns="http://www.w3.org/2000/svg">
<path d="M64.87 176H47.01V40.72H135.93V56.3H64.87V176Z" fill="white"/>
<path d="M258.82 40.72L311.64 176H291.69L276.68 134.58H219.87L204.48 176H185.48L238.68 40.72H258.82ZM271.36 120.33L248.37 57.82L225 120.33H271.36Z" fill="white"/>
<path d="M311.28 346.8V322.1L196.71 278.59L311.28 236.6V211.71H176V228.62H288.86L176 270.99V286.57L288.86 329.7H176V346.8H311.28Z" fill="white"/>
<path d="M98.01 382.49C118.53 382.49 134.49 388.95 145.89 401.87C157.29 414.663 162.99 431.447 162.99 452.22C162.99 473.12 157.353 490.347 146.08 503.9C134.807 517.453 118.847 524.23 98.2 524.23C87.6867 524.23 78.25 522.33 69.89 518.53C61.53 514.73 54.69 509.473 49.37 502.76C44.1767 496.047 40.1867 488.383 37.4 479.77C34.74 471.157 33.41 461.847 33.41 451.84C33.41 430.687 39.2367 413.84 50.89 401.3C62.67 388.76 78.3767 382.49 98.01 382.49ZM98.01 398.07C82.9367 398.07 71.3467 403.39 63.24 414.03C55.26 424.543 51.27 437.59 51.27 453.17C51.27 470.143 55.5133 483.697 64 493.83C72.6133 503.837 84.0767 508.84 98.39 508.84C112.577 508.84 123.913 503.773 132.4 493.64C140.887 483.507 145.13 470.017 145.13 453.17C145.13 436.45 140.823 423.087 132.21 413.08C123.723 403.073 112.323 398.07 98.01 398.07Z" fill="white"/>
<path d="M39 576.01H174.28V593.87H59.71V594.25L174.28 660.56V683.17H39V665.31H153.95V664.93L39 598.43V576.01Z" fill="white"/>
<path d="M262.93 626.24L218.28 684H196.24L241.46 625.67C230.693 624.277 222.397 620.35 216.57 613.89C210.743 607.43 207.83 598.627 207.83 587.48C207.83 574.94 211.567 565.377 219.04 558.79C226.64 552.077 237.153 548.72 250.58 548.72H308.72V684H290.86V626.24H262.93ZM290.86 611.04V563.92H256.66C236.14 563.92 225.88 571.773 225.88 587.48C225.88 603.187 236.14 611.04 256.66 611.04H290.86Z" fill="white"/>
<path d="M311.17 387.72L311.17 523L293.31 523L293.31 459.73L221.87 459.73L221.87 523L204.01 523L204.01 387.72L221.87 387.72L221.87 444.15L293.31 444.15L293.31 387.72L311.17 387.72Z" fill="white"/>
<path d="M51.77 210.72H107.44C121.247 210.72 132.203 213.887 140.31 220.22C148.417 226.427 152.47 236.243 152.47 249.67C152.47 276.903 137.08 290.52 106.3 290.52H69.63V346H51.77V210.72ZM69.63 226.11V275.51H104.02C113.647 275.51 121.12 273.737 126.44 270.19C131.887 266.517 134.61 260.057 134.61 250.81C134.61 245.617 133.723 241.31 131.95 237.89C130.303 234.47 127.833 231.937 124.54 230.29C121.247 228.643 117.827 227.567 114.28 227.06C110.733 226.427 106.49 226.11 101.55 226.11H69.63Z" fill="white"/>
</svg>
