<svg width="1920" height="536" viewBox="0 0 1920 536" fill="none" xmlns="http://www.w3.org/2000/svg">
<g filter="url(#filter0_b_5_357)">
<rect width="134.25" height="536" fill="url(#paint0_linear_5_357)" fill-opacity="0.2" style="mix-blend-mode:overlay"/>
</g>
<g filter="url(#filter1_b_5_357)">
<rect x="134.25" width="134.25" height="536" fill="url(#paint1_linear_5_357)" fill-opacity="0.2" style="mix-blend-mode:overlay"/>
</g>
<g filter="url(#filter2_b_5_357)">
<rect x="268.5" width="134.25" height="536" fill="url(#paint2_linear_5_357)" fill-opacity="0.2" style="mix-blend-mode:overlay"/>
</g>
<g filter="url(#filter3_b_5_357)">
<rect x="402.75" width="134.25" height="536" fill="url(#paint3_linear_5_357)" fill-opacity="0.2" style="mix-blend-mode:overlay"/>
</g>
<g filter="url(#filter4_b_5_357)">
<rect x="537" width="134.25" height="536" fill="url(#paint4_linear_5_357)" fill-opacity="0.2" style="mix-blend-mode:overlay"/>
</g>
<g filter="url(#filter5_b_5_357)">
<rect x="671.25" width="134.25" height="536" fill="url(#paint5_linear_5_357)" fill-opacity="0.2" style="mix-blend-mode:overlay"/>
</g>
<g filter="url(#filter6_b_5_357)">
<rect x="805.5" width="134.25" height="536" fill="url(#paint6_linear_5_357)" fill-opacity="0.2" style="mix-blend-mode:overlay"/>
</g>
<g filter="url(#filter7_b_5_357)">
<rect x="939.75" width="134.25" height="536" fill="url(#paint7_linear_5_357)" fill-opacity="0.2" style="mix-blend-mode:overlay"/>
</g>
<path d="M110.356 253.624H87.984C86.6053 237.957 76.892 230.124 58.844 230.124C50.8227 230.124 44.556 231.816 40.044 235.2C35.532 238.459 33.276 242.971 33.276 248.736C33.276 254.125 34.9053 257.823 38.164 259.828C41.548 261.833 48.9427 264.277 60.348 267.16C63.356 268.037 65.6747 268.664 67.304 269.04C82.2187 272.8 92.3707 276.184 97.76 279.192C109.667 285.584 115.62 295.548 115.62 309.084C115.62 314.975 114.617 320.301 112.612 325.064C110.607 329.827 107.912 333.837 104.528 337.096C101.144 340.229 97.1333 342.861 92.496 344.992C87.8587 347.123 83.0333 348.627 78.02 349.504C73.0067 350.507 67.8053 351.008 62.416 351.008C45.6213 351.008 32.0227 346.997 21.62 338.976C11.2173 330.955 6.016 319.173 6.016 303.632H29.14C29.14 313.408 32.336 320.677 38.728 325.44C45.12 330.077 53.4547 332.396 63.732 332.396C72.756 332.396 79.7747 330.579 84.788 326.944C89.9267 323.184 92.496 317.983 92.496 311.34C92.496 307.079 91.1173 303.632 88.36 301C85.728 298.243 82.8453 296.3 79.712 295.172C76.5787 294.044 71.1267 292.477 63.356 290.472C62.4787 290.221 61.7893 290.033 61.288 289.908C44.6187 285.647 33.652 282.137 28.388 279.38C17.484 273.74 11.656 265.029 10.904 253.248C10.904 252.371 10.904 251.493 10.904 250.616C10.904 238.709 15.3533 229.247 24.252 222.228C33.276 215.084 45.308 211.512 60.348 211.512C74.8867 211.512 86.7307 214.959 95.88 221.852C105.029 228.745 109.855 239.336 110.356 253.624ZM193.722 210.948C212.648 210.948 228.001 217.465 239.782 230.5C251.689 243.409 257.642 260.267 257.642 281.072C257.642 301.877 251.689 318.797 239.782 331.832C227.876 344.741 212.397 351.196 193.346 351.196C174.17 351.196 158.629 344.741 146.722 331.832C134.941 318.923 129.05 302.003 129.05 281.072C129.05 260.768 134.816 244.036 146.346 230.876C158.002 217.591 173.794 210.948 193.722 210.948ZM193.346 230.688C181.064 230.688 171.225 235.263 163.83 244.412C156.436 253.436 152.738 265.531 152.738 280.696C152.738 296.237 156.373 308.583 163.642 317.732C171.037 326.881 181.064 331.456 193.722 331.456C205.88 331.456 215.593 326.881 222.862 317.732C230.257 308.457 233.954 296.175 233.954 280.884C233.954 265.593 230.257 253.436 222.862 244.412C215.593 235.263 205.754 230.688 193.346 230.688ZM387.506 214.144V296.112C387.506 332.459 369.333 350.632 332.986 350.632C314.061 350.632 300.086 346.12 291.062 337.096C282.164 328.072 277.714 314.285 277.714 295.736V214.144H301.214V300.436C301.214 320.991 311.93 331.268 333.362 331.268C339.88 331.268 345.206 330.391 349.342 328.636C353.604 326.881 356.737 324.187 358.742 320.552C360.748 316.917 362.126 313.032 362.878 308.896C363.63 304.635 364.006 299.371 364.006 293.104V214.144H387.506ZM522.994 214.144V348H498.742L436.326 249.488V348H414.142V214.144H438.77L500.434 312.844V214.144H522.994ZM550.194 214.144H601.142C610.416 214.144 618.563 215.147 625.582 217.152C632.6 219.032 639.055 222.604 644.946 227.868C658.106 239.649 664.686 256.632 664.686 278.816C664.686 302.504 658.419 320.615 645.886 333.148C640.371 338.663 634.355 342.548 627.838 344.804C621.446 346.935 612.986 348 602.458 348H550.194V214.144ZM573.506 234.072V328.26H601.142C615.806 328.26 626.146 323.999 632.162 315.476C638.178 306.953 641.186 295.109 641.186 279.944C641.186 265.531 637.802 254.313 631.034 246.292C624.266 238.145 613.8 234.072 599.638 234.072H573.506ZM799.294 213.956L850.994 348H825.802L813.018 312.468H760.002L746.842 348H722.59L774.29 213.956H799.294ZM806.814 294.796L786.886 238.396L766.018 294.796H806.814ZM863.4 214.144H926.756C940.042 214.144 950.883 217.152 959.28 223.168C967.678 229.059 971.876 238.459 971.876 251.368C971.876 259.389 969.934 266.283 966.048 272.048C962.163 277.688 956.711 281.761 949.692 284.268C952.951 285.02 955.771 286.148 958.152 287.652C960.534 289.156 962.351 290.785 963.604 292.54C964.983 294.295 966.111 296.551 966.988 299.308C967.866 302.065 968.43 304.509 968.68 306.64C969.056 308.645 969.37 311.34 969.62 314.724C969.746 315.601 969.871 317.293 969.996 319.8C970.247 322.307 970.372 323.999 970.372 324.876C970.498 325.628 970.623 327.007 970.748 329.012C970.999 331.017 971.187 332.459 971.312 333.336C971.438 334.088 971.626 335.279 971.876 336.908C972.252 338.412 972.566 339.603 972.816 340.48C973.067 341.232 973.38 342.172 973.756 343.3C974.132 344.303 974.571 345.18 975.072 345.932C975.574 346.684 976.138 347.373 976.764 348H951.572C951.196 347.499 950.82 346.935 950.444 346.308C950.194 345.556 949.943 344.804 949.692 344.052C949.442 343.175 949.254 342.423 949.128 341.796C949.003 341.044 948.815 340.104 948.564 338.976C948.439 337.723 948.314 336.72 948.188 335.968C948.188 335.216 948.126 334.088 948 332.584C947.875 331.08 947.75 329.952 947.624 329.2C947.624 328.448 947.562 327.132 947.436 325.252C947.311 323.372 947.248 322.056 947.248 321.304C946.622 310.4 944.303 302.943 940.292 298.932C936.407 294.796 928.95 292.728 917.92 292.728H886.712V348H863.4V214.144ZM886.712 233.32V275.244H917.732C922.244 275.244 926.067 274.993 929.2 274.492C932.334 273.991 935.467 273.113 938.6 271.86C941.859 270.481 944.303 268.288 945.932 265.28C947.687 262.272 948.564 258.449 948.564 253.812C948.564 249.551 947.812 246.041 946.308 243.284C944.804 240.401 942.611 238.271 939.728 236.892C936.971 235.513 934.088 234.573 931.08 234.072C928.198 233.571 924.751 233.32 920.74 233.32H886.712ZM1053.68 210.948C1072.6 210.948 1087.95 217.465 1099.74 230.5C1111.64 243.409 1117.6 260.267 1117.6 281.072C1117.6 301.877 1111.64 318.797 1099.74 331.832C1087.83 344.741 1072.35 351.196 1053.3 351.196C1034.12 351.196 1018.58 344.741 1006.68 331.832C994.894 318.923 989.003 302.003 989.003 281.072C989.003 260.768 994.769 244.036 1006.3 230.876C1017.96 217.591 1033.75 210.948 1053.68 210.948ZM1053.3 230.688C1041.02 230.688 1031.18 235.263 1023.78 244.412C1016.39 253.436 1012.69 265.531 1012.69 280.696C1012.69 296.237 1016.33 308.583 1023.6 317.732C1030.99 326.881 1041.02 331.456 1053.68 331.456C1065.83 331.456 1075.55 326.881 1082.82 317.732C1090.21 308.457 1093.91 296.175 1093.91 280.884C1093.91 265.593 1090.21 253.436 1082.82 244.412C1075.55 235.263 1065.71 230.688 1053.3 230.688ZM1247.46 214.144V296.112C1247.46 332.459 1229.29 350.632 1192.94 350.632C1174.01 350.632 1160.04 346.12 1151.02 337.096C1142.12 328.072 1137.67 314.285 1137.67 295.736V214.144H1161.17V300.436C1161.17 320.991 1171.88 331.268 1193.32 331.268C1199.83 331.268 1205.16 330.391 1209.3 328.636C1213.56 326.881 1216.69 324.187 1218.7 320.552C1220.7 316.917 1222.08 313.032 1222.83 308.896C1223.58 304.635 1223.96 299.371 1223.96 293.104V214.144H1247.46ZM1382.95 214.144V348H1358.7L1296.28 249.488V348H1274.1V214.144H1298.72L1360.39 312.844V214.144H1382.95ZM1410.15 214.144H1461.09C1470.37 214.144 1478.52 215.147 1485.53 217.152C1492.55 219.032 1499.01 222.604 1504.9 227.868C1518.06 239.649 1524.64 256.632 1524.64 278.816C1524.64 302.504 1518.37 320.615 1505.84 333.148C1500.32 338.663 1494.31 342.548 1487.79 344.804C1481.4 346.935 1472.94 348 1462.41 348H1410.15V214.144ZM1433.46 234.072V328.26H1461.09C1475.76 328.26 1486.1 323.999 1492.11 315.476C1498.13 306.953 1501.14 295.109 1501.14 279.944C1501.14 265.531 1497.75 254.313 1490.99 246.292C1484.22 238.145 1473.75 234.072 1459.59 234.072H1433.46Z" fill="black" fill-opacity="0.36"/>
<g filter="url(#filter8_b_5_357)">
<rect x="1517" width="134.25" height="536" fill="url(#paint8_linear_5_357)" fill-opacity="0.2" style="mix-blend-mode:overlay"/>
</g>
<g filter="url(#filter9_b_5_357)">
<rect x="1651.25" width="134.25" height="536" fill="url(#paint9_linear_5_357)" fill-opacity="0.2" style="mix-blend-mode:overlay"/>
</g>
<g filter="url(#filter10_b_5_357)">
<rect x="1785.5" width="134.25" height="536" fill="url(#paint10_linear_5_357)" fill-opacity="0.2" style="mix-blend-mode:overlay"/>
</g>
<defs>
<filter id="filter0_b_5_357" x="-180" y="-180" width="494.25" height="896" filterUnits="userSpaceOnUse" color-interpolation-filters="sRGB">
<feFlood flood-opacity="0" result="BackgroundImageFix"/>
<feGaussianBlur in="BackgroundImageFix" stdDeviation="90"/>
<feComposite in2="SourceAlpha" operator="in" result="effect1_backgroundBlur_5_357"/>
<feBlend mode="normal" in="SourceGraphic" in2="effect1_backgroundBlur_5_357" result="shape"/>
</filter>
<filter id="filter1_b_5_357" x="-45.75" y="-180" width="494.25" height="896" filterUnits="userSpaceOnUse" color-interpolation-filters="sRGB">
<feFlood flood-opacity="0" result="BackgroundImageFix"/>
<feGaussianBlur in="BackgroundImageFix" stdDeviation="90"/>
<feComposite in2="SourceAlpha" operator="in" result="effect1_backgroundBlur_5_357"/>
<feBlend mode="normal" in="SourceGraphic" in2="effect1_backgroundBlur_5_357" result="shape"/>
</filter>
<filter id="filter2_b_5_357" x="88.5" y="-180" width="494.25" height="896" filterUnits="userSpaceOnUse" color-interpolation-filters="sRGB">
<feFlood flood-opacity="0" result="BackgroundImageFix"/>
<feGaussianBlur in="BackgroundImageFix" stdDeviation="90"/>
<feComposite in2="SourceAlpha" operator="in" result="effect1_backgroundBlur_5_357"/>
<feBlend mode="normal" in="SourceGraphic" in2="effect1_backgroundBlur_5_357" result="shape"/>
</filter>
<filter id="filter3_b_5_357" x="222.75" y="-180" width="494.25" height="896" filterUnits="userSpaceOnUse" color-interpolation-filters="sRGB">
<feFlood flood-opacity="0" result="BackgroundImageFix"/>
<feGaussianBlur in="BackgroundImageFix" stdDeviation="90"/>
<feComposite in2="SourceAlpha" operator="in" result="effect1_backgroundBlur_5_357"/>
<feBlend mode="normal" in="SourceGraphic" in2="effect1_backgroundBlur_5_357" result="shape"/>
</filter>
<filter id="filter4_b_5_357" x="357" y="-180" width="494.25" height="896" filterUnits="userSpaceOnUse" color-interpolation-filters="sRGB">
<feFlood flood-opacity="0" result="BackgroundImageFix"/>
<feGaussianBlur in="BackgroundImageFix" stdDeviation="90"/>
<feComposite in2="SourceAlpha" operator="in" result="effect1_backgroundBlur_5_357"/>
<feBlend mode="normal" in="SourceGraphic" in2="effect1_backgroundBlur_5_357" result="shape"/>
</filter>
<filter id="filter5_b_5_357" x="491.25" y="-180" width="494.25" height="896" filterUnits="userSpaceOnUse" color-interpolation-filters="sRGB">
<feFlood flood-opacity="0" result="BackgroundImageFix"/>
<feGaussianBlur in="BackgroundImageFix" stdDeviation="90"/>
<feComposite in2="SourceAlpha" operator="in" result="effect1_backgroundBlur_5_357"/>
<feBlend mode="normal" in="SourceGraphic" in2="effect1_backgroundBlur_5_357" result="shape"/>
</filter>
<filter id="filter6_b_5_357" x="625.5" y="-180" width="494.25" height="896" filterUnits="userSpaceOnUse" color-interpolation-filters="sRGB">
<feFlood flood-opacity="0" result="BackgroundImageFix"/>
<feGaussianBlur in="BackgroundImageFix" stdDeviation="90"/>
<feComposite in2="SourceAlpha" operator="in" result="effect1_backgroundBlur_5_357"/>
<feBlend mode="normal" in="SourceGraphic" in2="effect1_backgroundBlur_5_357" result="shape"/>
</filter>
<filter id="filter7_b_5_357" x="759.75" y="-180" width="494.25" height="896" filterUnits="userSpaceOnUse" color-interpolation-filters="sRGB">
<feFlood flood-opacity="0" result="BackgroundImageFix"/>
<feGaussianBlur in="BackgroundImageFix" stdDeviation="90"/>
<feComposite in2="SourceAlpha" operator="in" result="effect1_backgroundBlur_5_357"/>
<feBlend mode="normal" in="SourceGraphic" in2="effect1_backgroundBlur_5_357" result="shape"/>
</filter>
<filter id="filter8_b_5_357" x="1337" y="-180" width="494.25" height="896" filterUnits="userSpaceOnUse" color-interpolation-filters="sRGB">
<feFlood flood-opacity="0" result="BackgroundImageFix"/>
<feGaussianBlur in="BackgroundImageFix" stdDeviation="90"/>
<feComposite in2="SourceAlpha" operator="in" result="effect1_backgroundBlur_5_357"/>
<feBlend mode="normal" in="SourceGraphic" in2="effect1_backgroundBlur_5_357" result="shape"/>
</filter>
<filter id="filter9_b_5_357" x="1471.25" y="-180" width="494.25" height="896" filterUnits="userSpaceOnUse" color-interpolation-filters="sRGB">
<feFlood flood-opacity="0" result="BackgroundImageFix"/>
<feGaussianBlur in="BackgroundImageFix" stdDeviation="90"/>
<feComposite in2="SourceAlpha" operator="in" result="effect1_backgroundBlur_5_357"/>
<feBlend mode="normal" in="SourceGraphic" in2="effect1_backgroundBlur_5_357" result="shape"/>
</filter>
<filter id="filter10_b_5_357" x="1605.5" y="-180" width="494.25" height="896" filterUnits="userSpaceOnUse" color-interpolation-filters="sRGB">
<feFlood flood-opacity="0" result="BackgroundImageFix"/>
<feGaussianBlur in="BackgroundImageFix" stdDeviation="90"/>
<feComposite in2="SourceAlpha" operator="in" result="effect1_backgroundBlur_5_357"/>
<feBlend mode="normal" in="SourceGraphic" in2="effect1_backgroundBlur_5_357" result="shape"/>
</filter>
<linearGradient id="paint0_linear_5_357" x1="0" y1="268" x2="134.25" y2="268" gradientUnits="userSpaceOnUse">
<stop stop-color="#D9D9D9"/>
<stop offset="1"/>
</linearGradient>
<linearGradient id="paint1_linear_5_357" x1="134.25" y1="268" x2="268.5" y2="268" gradientUnits="userSpaceOnUse">
<stop stop-color="#D9D9D9"/>
<stop offset="1"/>
</linearGradient>
<linearGradient id="paint2_linear_5_357" x1="268.5" y1="268" x2="402.75" y2="268" gradientUnits="userSpaceOnUse">
<stop stop-color="#D9D9D9"/>
<stop offset="1"/>
</linearGradient>
<linearGradient id="paint3_linear_5_357" x1="402.75" y1="268" x2="537" y2="268" gradientUnits="userSpaceOnUse">
<stop stop-color="#D9D9D9"/>
<stop offset="1"/>
</linearGradient>
<linearGradient id="paint4_linear_5_357" x1="537" y1="268" x2="671.25" y2="268" gradientUnits="userSpaceOnUse">
<stop stop-color="#D9D9D9"/>
<stop offset="1"/>
</linearGradient>
<linearGradient id="paint5_linear_5_357" x1="671.25" y1="268" x2="805.5" y2="268" gradientUnits="userSpaceOnUse">
<stop stop-color="#D9D9D9"/>
<stop offset="1"/>
</linearGradient>
<linearGradient id="paint6_linear_5_357" x1="805.5" y1="268" x2="939.75" y2="268" gradientUnits="userSpaceOnUse">
<stop stop-color="#D9D9D9"/>
<stop offset="1"/>
</linearGradient>
<linearGradient id="paint7_linear_5_357" x1="939.75" y1="268" x2="1074" y2="268" gradientUnits="userSpaceOnUse">
<stop stop-color="#D9D9D9"/>
<stop offset="1"/>
</linearGradient>
<linearGradient id="paint8_linear_5_357" x1="1517" y1="268" x2="1651.25" y2="268" gradientUnits="userSpaceOnUse">
<stop stop-color="#D9D9D9"/>
<stop offset="1"/>
</linearGradient>
<linearGradient id="paint9_linear_5_357" x1="1651.25" y1="268" x2="1785.5" y2="268" gradientUnits="userSpaceOnUse">
<stop stop-color="#D9D9D9"/>
<stop offset="1"/>
</linearGradient>
<linearGradient id="paint10_linear_5_357" x1="1785.5" y1="268" x2="1919.75" y2="268" gradientUnits="userSpaceOnUse">
<stop stop-color="#D9D9D9"/>
<stop offset="1"/>
</linearGradient>
</defs>
</svg>
